<svg id="visual" viewBox="0 0 900 600" width="900" height="600" xmlns="http://www.w3.org/2000/svg" xmlns:xlink="http://www.w3.org/1999/xlink" version="1.1"><path d="M0 61L13.7 60C27.3 59 54.7 57 82 58C109.3 59 136.7 63 163.8 64C191 65 218 63 245.2 66C272.3 69 299.7 77 327 88C354.3 99 381.7 113 409 118C436.3 123 463.7 119 491 116C518.3 113 545.7 111 573 105C600.3 99 627.7 89 654.8 94C682 99 709 119 736.2 115C763.3 111 790.7 83 818 73C845.3 63 872.7 71 886.3 75L900 79L900 0L886.3 0C872.7 0 845.3 0 818 0C790.7 0 763.3 0 736.2 0C709 0 682 0 654.8 0C627.7 0 600.3 0 573 0C545.7 0 518.3 0 491 0C463.7 0 436.3 0 409 0C381.7 0 354.3 0 327 0C299.7 0 272.3 0 245.2 0C218 0 191 0 163.8 0C136.7 0 109.3 0 82 0C54.7 0 27.3 0 13.7 0L0 0Z" fill="#6198ff"></path><path d="M0 121L13.7 121C27.3 121 54.7 121 82 120C109.3 119 136.7 117 163.8 120C191 123 218 131 245.2 143C272.3 155 299.7 171 327 181C354.3 191 381.7 195 409 192C436.3 189 463.7 179 491 178C518.3 177 545.7 185 573 179C600.3 173 627.7 153 654.8 154C682 155 709 177 736.2 170C763.3 163 790.7 127 818 119C845.3 111 872.7 131 886.3 141L900 151L900 77L886.3 73C872.7 69 845.3 61 818 71C790.7 81 763.3 109 736.2 113C709 117 682 97 654.8 92C627.7 87 600.3 97 573 103C545.7 109 518.3 111 491 114C463.7 117 436.3 121 409 116C381.7 111 354.3 97 327 86C299.7 75 272.3 67 245.2 64C218 61 191 63 163.8 62C136.7 61 109.3 57 82 56C54.7 55 27.3 57 13.7 58L0 59Z" fill="#3c80ff"></path><path d="M0 205L13.7 208C27.3 211 54.7 217 82 221C109.3 225 136.7 227 163.8 227C191 227 218 225 245.2 234C272.3 243 299.7 263 327 280C354.3 297 381.7 311 409 301C436.3 291 463.7 257 491 251C518.3 245 545.7 267 573 272C600.3 277 627.7 265 654.8 258C682 251 709 249 736.2 243C763.3 237 790.7 227 818 221C845.3 215 872.7 213 886.3 212L900 211L900 149L886.3 139C872.7 129 845.3 109 818 117C790.7 125 763.3 161 736.2 168C709 175 682 153 654.8 152C627.7 151 600.3 171 573 177C545.7 183 518.3 175 491 176C463.7 177 436.3 187 409 190C381.7 193 354.3 189 327 179C299.7 169 272.3 153 245.2 141C218 129 191 121 163.8 118C136.7 115 109.3 117 82 118C54.7 119 27.3 119 13.7 119L0 119Z" fill="#0066ff"></path><path d="M0 343L13.7 354C27.3 365 54.7 387 82 412C109.3 437 136.7 465 163.8 452C191 439 218 385 245.2 388C272.3 391 299.7 451 327 475C354.3 499 381.7 487 409 470C436.3 453 463.7 431 491 432C518.3 433 545.7 457 573 447C600.3 437 627.7 393 654.8 373C682 353 709 357 736.2 374C763.3 391 790.7 421 818 431C845.3 441 872.7 431 886.3 426L900 421L900 209L886.3 210C872.7 211 845.3 213 818 219C790.7 225 763.3 235 736.2 241C709 247 682 249 654.8 256C627.7 263 600.3 275 573 270C545.7 265 518.3 243 491 249C463.7 255 436.3 289 409 299C381.7 309 354.3 295 327 278C299.7 261 272.3 241 245.2 232C218 223 191 225 163.8 225C136.7 225 109.3 223 82 219C54.7 215 27.3 209 13.7 206L0 203Z" fill="#0059dd"></path><path d="M0 601L13.7 601C27.3 601 54.7 601 82 601C109.3 601 136.7 601 163.8 601C191 601 218 601 245.2 601C272.3 601 299.7 601 327 601C354.3 601 381.7 601 409 601C436.3 601 463.7 601 491 601C518.3 601 545.7 601 573 601C600.3 601 627.7 601 654.8 601C682 601 709 601 736.2 601C763.3 601 790.7 601 818 601C845.3 601 872.7 601 886.3 601L900 601L900 419L886.3 424C872.7 429 845.3 439 818 429C790.7 419 763.3 389 736.2 372C709 355 682 351 654.8 371C627.7 391 600.3 435 573 445C545.7 455 518.3 431 491 430C463.7 429 436.3 451 409 468C381.7 485 354.3 497 327 473C299.7 449 272.3 389 245.2 386C218 383 191 437 163.8 450C136.7 463 109.3 435 82 410C54.7 385 27.3 363 13.7 352L0 341Z" fill="#004cbb"></path></svg>