<svg id="visual" viewBox="0 0 900 100" width="900" height="100" xmlns="http://www.w3.org/2000/svg" xmlns:xlink="http://www.w3.org/1999/xlink" version="1.1"><path d="M0 6L15 21.3C30 36.7 60 67.3 90 78C120 88.7 150 79.3 180 66.5C210 53.7 240 37.3 270 32.7C300 28 330 35 360 31.5C390 28 420 14 450 20.5C480 27 510 54 540 61.3C570 68.7 600 56.3 630 58.3C660 60.3 690 76.7 720 74.8C750 73 780 53 810 51.3C840 49.7 870 66.3 885 74.7L900 83L900 0L885 0C870 0 840 0 810 0C780 0 750 0 720 0C690 0 660 0 630 0C600 0 570 0 540 0C510 0 480 0 450 0C420 0 390 0 360 0C330 0 300 0 270 0C240 0 210 0 180 0C150 0 120 0 90 0C60 0 30 0 15 0L0 0Z" fill="#FF0066" stroke-linecap="round" stroke-linejoin="miter"></path></svg>