<svg id="visual" viewBox="0 0 900 100" width="900" height="100" xmlns="http://www.w3.org/2000/svg" xmlns:xlink="http://www.w3.org/1999/xlink" version="1.1"><path d="M0 14L15 17.3C30 20.7 60 27.3 90 35.5C120 43.7 150 53.3 180 51.7C210 50 240 37 270 30.8C300 24.7 330 25.3 360 33.5C390 41.7 420 57.3 450 68.2C480 79 510 85 540 76.3C570 67.7 600 44.3 630 44.2C660 44 690 67 720 69.2C750 71.3 780 52.7 810 40.7C840 28.7 870 23.3 885 20.7L900 18L900 101L885 101C870 101 840 101 810 101C780 101 750 101 720 101C690 101 660 101 630 101C600 101 570 101 540 101C510 101 480 101 450 101C420 101 390 101 360 101C330 101 300 101 270 101C240 101 210 101 180 101C150 101 120 101 90 101C60 101 30 101 15 101L0 101Z" fill="#FF0066" stroke-linecap="round" stroke-linejoin="miter"></path></svg>